<svg width="19" height="19" viewBox="0 0 19 19" fill="none" xmlns="http://www.w3.org/2000/svg">
<path fill-rule="evenodd" clip-rule="evenodd" d="M5.55685 0.365235H7.57402C8.07109 0.365235 8.47402 0.768183 8.47402 1.26523C8.47402 1.7623 8.07109 2.16523 7.57402 2.16523H5.59402C4.8231 2.16523 4.29904 2.16594 3.89396 2.19903C3.49938 2.23127 3.2976 2.2897 3.15684 2.36143C2.81815 2.53399 2.54278 2.80936 2.37021 3.14805C2.29849 3.28881 2.24006 3.49059 2.20782 3.88517C2.17473 4.29025 2.17402 4.81431 2.17402 5.58523V13.1452C2.17402 13.9162 2.17473 14.4402 2.20782 14.8453C2.24006 15.2399 2.29849 15.4417 2.37021 15.5824C2.54278 15.9211 2.81815 16.1965 3.15684 16.369C3.2976 16.4408 3.49938 16.4992 3.89396 16.5315C4.29904 16.5645 4.8231 16.5652 5.59402 16.5652H13.154C13.925 16.5652 14.449 16.5645 14.8541 16.5315C15.2487 16.4992 15.4505 16.4408 15.5912 16.369C15.9299 16.1965 16.2053 15.9211 16.3778 15.5824C16.4496 15.4417 16.508 15.2399 16.5403 14.8453C16.5733 14.4402 16.574 13.9162 16.574 13.1452V11.1652C16.574 10.6682 16.977 10.2652 17.474 10.2652C17.9711 10.2652 18.374 10.6682 18.374 11.1652V13.1824C18.374 13.9069 18.374 14.5048 18.3342 14.9919C18.2929 15.4977 18.2042 15.9628 17.9816 16.3996C17.6365 17.077 17.0858 17.6277 16.4084 17.9728C15.9716 18.1954 15.5065 18.2841 15.0006 18.3255C14.5136 18.3652 13.9157 18.3652 13.1912 18.3652H5.55684C4.83237 18.3652 4.23446 18.3652 3.74739 18.3255C3.2415 18.2841 2.77646 18.1954 2.33966 17.9728C1.66227 17.6277 1.11155 17.077 0.766406 16.3996C0.543836 15.9628 0.455132 15.4977 0.413795 14.9919C0.374006 14.5048 0.374015 13.9069 0.374024 13.1824V5.54806C0.374015 4.82359 0.374006 4.22567 0.413795 3.7386C0.455132 3.23271 0.543836 2.76767 0.766397 2.33087C1.11155 1.65349 1.66227 1.10276 2.33966 0.757608C2.77646 0.535047 3.2415 0.446343 3.74739 0.405006C4.23446 0.365217 4.83238 0.365226 5.55685 0.365235ZM11.174 1.26524C11.174 0.768192 11.577 0.365244 12.074 0.365244H17.474C17.9711 0.365244 18.374 0.768192 18.374 1.26524V6.66524C18.374 7.1623 17.9711 7.56523 17.474 7.56523C16.977 7.56523 16.574 7.1623 16.574 6.66524V3.43804L10.0104 10.0016C9.65896 10.3531 9.08908 10.3531 8.73763 10.0016C8.38618 9.65017 8.38618 9.08029 8.73763 8.72884L15.3012 2.16524H12.074C11.577 2.16524 11.174 1.7623 11.174 1.26524Z" fill="#30B5E0"/>
</svg>
