<svg width="26" height="36" viewBox="0 0 26 36" fill="none" xmlns="http://www.w3.org/2000/svg">
<g filter="url(#filter0_d_2936_1691)">
<path d="M11.5 3C5.14214 3 0 8.1645 0 14.55C0 17.421 0.821428 20.1105 2.31643 22.536C3.87714 25.077 5.93071 27.255 7.50786 29.796C8.28 31.0335 8.83857 32.1885 9.43 33.525C9.85714 34.4325 10.2021 36 11.5 36C12.7979 36 13.1429 34.4325 13.5536 33.525C14.1614 32.1885 14.7036 31.0335 15.4757 29.796C17.0529 27.2715 19.1064 25.0935 20.6671 22.536C22.1786 20.1105 23 17.421 23 14.55C23 8.1645 17.8579 3 11.5 3ZM11.5 19.0875C9.23286 19.0875 7.39286 17.2395 7.39286 14.9625C7.39286 12.6855 9.23286 10.8375 11.5 10.8375C13.7671 10.8375 15.6071 12.6855 15.6071 14.9625C15.6071 17.2395 13.7671 19.0875 11.5 19.0875Z" fill="#1BB688"/>
</g>
<defs>
<filter id="filter0_d_2936_1691" x="0" y="0" width="26" height="36" filterUnits="userSpaceOnUse" color-interpolation-filters="sRGB">
<feFlood flood-opacity="0" result="BackgroundImageFix"/>
<feColorMatrix in="SourceAlpha" type="matrix" values="0 0 0 0 0 0 0 0 0 0 0 0 0 0 0 0 0 0 127 0" result="hardAlpha"/>
<feOffset dx="1.5" dy="-1.5"/>
<feGaussianBlur stdDeviation="0.75"/>
<feComposite in2="hardAlpha" operator="out"/>
<feColorMatrix type="matrix" values="0 0 0 0 0 0 0 0 0 0 0 0 0 0 0 0 0 0 0.25 0"/>
<feBlend mode="normal" in2="BackgroundImageFix" result="effect1_dropShadow_2936_1691"/>
<feBlend mode="normal" in="SourceGraphic" in2="effect1_dropShadow_2936_1691" result="shape"/>
</filter>
</defs>
</svg>
