<svg width="55" height="45" viewBox="0 0 55 45" fill="none" xmlns="http://www.w3.org/2000/svg">
<path d="M17.1875 36.9531C15.7661 36.9531 14.6094 38.1098 14.6094 39.5312C14.6094 40.9527 15.7661 42.1094 17.1875 42.1094C18.6089 42.1094 19.7656 40.9527 19.7656 39.5312C19.7656 38.1098 18.6089 36.9531 17.1875 36.9531ZM17.1875 40.3906C16.7131 40.3906 16.3281 40.0056 16.3281 39.5312C16.3281 39.0569 16.7131 38.6719 17.1875 38.6719C17.6619 38.6719 18.0469 39.0569 18.0469 39.5312C18.0469 40.0056 17.6619 40.3906 17.1875 40.3906Z" fill="#30B5E0"/>
<path d="M27.5 36.9531C26.0786 36.9531 24.9219 38.1098 24.9219 39.5312C24.9219 40.9527 26.0786 42.1094 27.5 42.1094C28.9214 42.1094 30.0781 40.9527 30.0781 39.5312C30.0781 38.1098 28.9214 36.9531 27.5 36.9531ZM27.5 40.3906C27.0256 40.3906 26.6406 40.0056 26.6406 39.5312C26.6406 39.0569 27.0256 38.6719 27.5 38.6719C27.9744 38.6719 28.3594 39.0569 28.3594 39.5312C28.3594 40.0056 27.9744 40.3906 27.5 40.3906Z" fill="#30B5E0"/>
<path d="M37.8125 36.9531C36.3911 36.9531 35.2344 38.1098 35.2344 39.5312C35.2344 40.9527 36.3911 42.1094 37.8125 42.1094C39.2339 42.1094 40.3906 40.9527 40.3906 39.5312C40.3906 38.1098 39.2339 36.9531 37.8125 36.9531ZM37.8125 40.3906C37.3381 40.3906 36.9531 40.0056 36.9531 39.5312C36.9531 39.0569 37.3381 38.6719 37.8125 38.6719C38.2869 38.6719 38.6719 39.0569 38.6719 39.5312C38.6719 40.0056 38.2869 40.3906 37.8125 40.3906Z" fill="#30B5E0"/>
<path d="M48.9844 36.9531C47.563 36.9531 46.4062 38.1098 46.4062 39.5312C46.4062 40.9527 47.563 42.1094 48.9844 42.1094C50.4058 42.1094 51.5625 40.9527 51.5625 39.5312C51.5625 38.1098 50.4058 36.9531 48.9844 36.9531ZM48.9844 40.3906C48.51 40.3906 48.125 40.0056 48.125 39.5312C48.125 39.0569 48.51 38.6719 48.9844 38.6719C49.4588 38.6719 49.8438 39.0569 49.8438 39.5312C49.8438 40.0056 49.4588 40.3906 48.9844 40.3906Z" fill="#30B5E0"/>
<path d="M6.01562 36.9531C4.59422 36.9531 3.4375 38.1098 3.4375 39.5312C3.4375 40.9527 4.59422 42.1094 6.01562 42.1094C7.43703 42.1094 8.59375 40.9527 8.59375 39.5312C8.59375 38.1098 7.43703 36.9531 6.01562 36.9531ZM6.01562 40.3906C5.54125 40.3906 5.15625 40.0056 5.15625 39.5312C5.15625 39.0569 5.54125 38.6719 6.01562 38.6719C6.49 38.6719 6.875 39.0569 6.875 39.5312C6.875 40.0056 6.49 40.3906 6.01562 40.3906Z" fill="#30B5E0"/>
<path d="M49.8438 34.375H48.9844V23.2031C48.9844 22.4555 48.5504 21.5884 47.9531 21.1406L45.8906 19.5937C45.7299 19.4734 45.5469 19.1073 45.5469 18.9062V15.4688C46.0221 15.4688 46.4062 15.0838 46.4062 14.6094V12.0312C46.4062 11.5569 46.0221 11.1719 45.5469 11.1719H40.3906C39.9154 11.1719 39.5312 11.5569 39.5312 12.0312V14.6094C39.5312 15.0838 39.9154 15.4688 40.3906 15.4688V18.9062C40.3906 19.1073 40.2076 19.4734 40.0477 19.5937L37.9852 21.1406C37.3871 21.5884 36.9531 22.4555 36.9531 23.2031V34.375H33.5156V23.2031C33.5156 22.4555 33.0816 21.5884 32.4844 21.1406L30.4219 19.5937C30.2612 19.4734 30.0781 19.1073 30.0781 18.9062V14.6094C30.0781 14.135 29.694 13.75 29.2188 13.75H25.7812C25.306 13.75 24.9219 14.135 24.9219 14.6094V18.9062C24.9219 19.1073 24.7388 19.4734 24.579 19.5937L22.5165 21.1406C21.9184 21.5884 21.4844 22.4555 21.4844 23.2031V34.375H18.0469V23.2031C18.0469 22.4555 17.6129 21.5884 17.0156 21.1406L14.9531 19.5937C14.7924 19.4734 14.6094 19.1073 14.6094 18.9062V14.6094C14.6094 14.135 14.2252 13.75 13.75 13.75H10.3125C9.83727 13.75 9.45312 14.135 9.45312 14.6094V18.9062C9.45312 19.1073 9.27008 19.4734 9.11023 19.5937L7.04773 21.1406C6.44961 21.5884 6.01562 22.4555 6.01562 23.2031V34.375H5.15625C2.31258 34.375 0 36.6876 0 39.5312C0 42.3749 2.31258 44.6875 5.15625 44.6875H49.8438C52.6874 44.6875 55 42.3749 55 39.5312C55 36.6876 52.6874 34.375 49.8438 34.375ZM41.25 12.8906H44.6875V13.75H41.25V12.8906ZM38.6719 23.2031C38.6719 23.002 38.8549 22.6359 39.0148 22.5156L41.0773 20.9688C41.6754 20.521 42.1094 19.6539 42.1094 18.9062V15.4688H43.8281V18.9062C43.8281 19.6539 44.2621 20.521 44.8594 20.9688L46.9219 22.5156C47.0826 22.6359 47.2656 23.002 47.2656 23.2031V34.375H38.6719V23.2031ZM23.2031 23.2031C23.2031 23.002 23.3862 22.6359 23.546 22.5156L25.6085 20.9688C26.2066 20.521 26.6406 19.6539 26.6406 18.9062V15.4688H28.3594V18.9062C28.3594 19.6539 28.7934 20.521 29.3906 20.9688L31.4531 22.5156C31.6138 22.6359 31.7969 23.002 31.7969 23.2031V34.375H23.2031V23.2031ZM7.73438 23.2031C7.73438 23.002 7.91742 22.6359 8.07727 22.5156L10.1398 20.9688C10.7379 20.521 11.1719 19.6539 11.1719 18.9062V15.4688H12.8906V18.9062C12.8906 19.6539 13.3246 20.521 13.9219 20.9688L15.9844 22.5156C16.1451 22.6359 16.3281 23.002 16.3281 23.2031V34.375H7.73438V23.2031ZM49.8438 42.9688H5.15625C3.26047 42.9688 1.71875 41.427 1.71875 39.5312C1.71875 37.6355 3.26047 36.0938 5.15625 36.0938H49.8438C51.7395 36.0938 53.2812 37.6355 53.2812 39.5312C53.2812 41.427 51.7395 42.9688 49.8438 42.9688Z" fill="#30B5E0"/>
<path d="M0.859375 1.71875H1.71875V2.57812C1.71875 3.99953 2.87547 5.15625 4.29688 5.15625H26.6406V8.59375H24.9219C24.4466 8.59375 24.0625 8.97875 24.0625 9.45312V12.0312C24.0625 12.5056 24.4466 12.8906 24.9219 12.8906H30.0781C30.5534 12.8906 30.9375 12.5056 30.9375 12.0312V9.45312C30.9375 8.97875 30.5534 8.59375 30.0781 8.59375H28.3594V5.15625H50.7031C52.1245 5.15625 53.2812 3.99953 53.2812 2.57812V1.71875H54.1406C54.6159 1.71875 55 1.33375 55 0.859375C55 0.385 54.6159 0 54.1406 0H0.859375C0.384141 0 0 0.385 0 0.859375C0 1.33375 0.384141 1.71875 0.859375 1.71875ZM29.2188 11.1719H25.7812V10.3125H29.2188V11.1719ZM51.5625 2.57812C51.5625 3.05164 51.1775 3.4375 50.7031 3.4375H4.29688C3.8225 3.4375 3.4375 3.05164 3.4375 2.57812V1.71875H51.5625V2.57812Z" fill="#30B5E0"/>
<path d="M45.5469 24.0625H40.3906C39.9154 24.0625 39.5312 24.4466 39.5312 24.9219V32.6562C39.5312 33.1315 39.9154 33.5156 40.3906 33.5156H45.5469C46.0221 33.5156 46.4062 33.1315 46.4062 32.6562V24.9219C46.4062 24.4466 46.0221 24.0625 45.5469 24.0625ZM44.6875 31.7969H41.25V25.7812H44.6875V31.7969Z" fill="#30B5E0"/>
<path d="M30.0781 24.0625H24.9219C24.4466 24.0625 24.0625 24.4466 24.0625 24.9219V32.6562C24.0625 33.1315 24.4466 33.5156 24.9219 33.5156H30.0781C30.5534 33.5156 30.9375 33.1315 30.9375 32.6562V24.9219C30.9375 24.4466 30.5534 24.0625 30.0781 24.0625ZM29.2188 31.7969H25.7812V25.7812H29.2188V31.7969Z" fill="#30B5E0"/>
<path d="M14.6094 24.0625H9.45312C8.97789 24.0625 8.59375 24.4466 8.59375 24.9219V32.6562C8.59375 33.1315 8.97789 33.5156 9.45312 33.5156H14.6094C15.0846 33.5156 15.4688 33.1315 15.4688 32.6562V24.9219C15.4688 24.4466 15.0846 24.0625 14.6094 24.0625ZM13.75 31.7969H10.3125V25.7812H13.75V31.7969Z" fill="#30B5E0"/>
</svg>
