<svg width="36" height="53" viewBox="0 0 36 53" fill="none" xmlns="http://www.w3.org/2000/svg">
<path d="M31.1768 36.207H29.8774V51.999H31.1768V36.207Z" fill="#E0AC26" stroke="#E0AC26"/>
<path d="M31.1771 17.3205H31.8917C33.5809 17.3205 34.9127 15.8433 34.9127 14.0496V7.78906H33.6134V14.0496C33.6134 15.0695 32.8338 15.9136 31.8917 15.9136H31.1771V7.78906H29.8777V15.9136H29.1631C28.2211 15.9136 27.4414 15.0695 27.4414 14.0496V7.78906H26.1421V14.0496C26.1421 15.8433 27.5064 17.3205 29.1631 17.3205H29.8777V28.6457H31.1771V17.3205Z" fill="#E0AC26" stroke="#E0AC26"/>
<path d="M13.3448 42.1504H12.0454V51.9984H13.3448V42.1504Z" fill="#E0AC26" stroke="#E0AC26"/>
<path d="M31.6322 29.7012H25.8826L23.7387 20.9436C23.024 17.9892 20.5228 15.9141 17.6642 15.9141H16.982H8.21141H7.26938C3.79361 15.9141 1 18.9388 1 22.667V42.1519C1 43.6643 2.13693 44.8601 3.53374 44.8601C3.98851 44.8601 4.4108 44.7194 4.76812 44.5084V51.9647H6.06748V42.1167V17.4968C6.45728 17.3913 6.87957 17.3209 7.30186 17.3209H8.21141V22.7725H17.0145V17.3209H17.6967C18.2164 17.3209 18.7037 17.3913 19.1909 17.5671V24.6717V24.7772V51.9999H20.4903V29.7012L21.01 31.706C21.5623 33.7459 23.2839 35.1528 25.2329 35.1528H31.6322C33.029 35.1528 34.166 33.9218 34.166 32.4446C34.166 30.9322 33.029 29.7012 31.6322 29.7012ZM3.53374 43.4532C2.85158 43.4532 2.29935 42.8553 2.29935 42.1519V22.667C2.29935 20.6974 3.27387 19.0091 4.73564 18.0595V42.1519C4.73564 42.8905 4.18341 43.4532 3.53374 43.4532ZM15.7152 21.3656H9.51076V17.3209H15.7152V21.3656ZM31.6322 33.7459H25.2329C23.8686 33.7459 22.6342 32.7611 22.2444 31.3191L20.4578 24.6014V18.2705C21.4323 18.974 22.147 20.0643 22.4718 21.3305L24.7457 30.5805C24.8106 30.8971 25.0705 31.1081 25.3629 31.1081H31.5997C32.2819 31.1081 32.8341 31.706 32.8341 32.4094C32.8341 33.1129 32.3144 33.7459 31.6322 33.7459Z" fill="#E0AC26" stroke="#E0AC26"/>
<path d="M12.6294 13.2066C10.4205 13.2066 8.56894 11.6943 7.88678 9.58398H6.52246C7.2371 12.468 9.70587 14.6135 12.6294 14.6135C15.553 14.6135 18.0217 12.468 18.7364 9.58398H17.3721C16.6574 11.6591 14.8058 13.2066 12.6294 13.2066Z" fill="#E0AC26" stroke="#E0AC26"/>
<path d="M18.899 7.08464C18.5742 3.67302 15.878 1 12.6296 1C9.34877 1 6.65261 3.67302 6.32777 7.08464H2.36475V8.4915H23.0569V7.08464H18.899ZM7.62712 7.08464C7.95196 4.44679 10.0634 2.40685 12.5971 2.40685C15.1309 2.40685 17.2423 4.44679 17.5672 7.08464H7.62712Z" fill="#E0AC26" stroke="#E0AC26"/>
</svg>
