<svg width="50" height="50" viewBox="0 0 50 50" fill="none" xmlns="http://www.w3.org/2000/svg">
<path d="M15.7096 48.9994C23.8232 48.9994 30.4193 42.4032 30.4193 34.2897C30.4193 26.1762 23.8232 19.5801 15.7096 19.5801C7.59611 19.5801 1 26.1762 1 34.2897C1 42.4032 7.59611 48.9994 15.7096 48.9994ZM27.8722 29.273L23.1341 33.0975C23.018 33.1981 22.9019 33.1517 22.8477 33.1207C22.7858 33.082 22.7083 33.0046 22.7316 32.8652L23.018 31.1155C23.1109 30.5968 22.9638 30.0626 22.6309 29.6601C22.0425 28.9555 20.9354 28.8084 20.1767 29.3736C20.0838 29.4433 19.9832 29.451 19.8903 29.3736C19.8206 29.3272 19.7509 29.2343 19.7974 29.0949L21.9806 22.7001C24.6206 24.1401 26.7109 26.4549 27.8722 29.2575V29.273ZM15.7096 21.1285C17.4283 21.1285 19.0619 21.4691 20.5716 22.073L18.3342 28.6304C18.0864 29.3968 18.3342 30.1865 18.9922 30.6588C19.6425 31.1233 20.4787 31.1155 21.1135 30.6355C21.2374 30.5426 21.369 30.5813 21.4541 30.682C21.5161 30.7517 21.5083 30.8291 21.5006 30.8833L21.2141 32.633C21.0825 33.3762 21.4232 34.1039 22.0735 34.4833C22.3599 34.6536 22.6774 34.731 22.987 34.731C23.3896 34.731 23.7922 34.5917 24.1251 34.3207L28.4064 30.8678C28.7083 31.9671 28.8786 33.1207 28.8786 34.3129C28.8786 40.4213 24.6825 45.562 19.0309 47.0329L19.418 44.6871C19.5496 43.882 19.3251 43.0613 18.7987 42.442C18.0709 41.5903 16.8554 41.242 15.7948 41.5981C15.3458 41.7452 14.8735 41.6368 14.5329 41.2962C14.1922 40.9555 14.0838 40.4833 14.2309 40.0342L14.7961 38.331C15.1987 37.1465 14.7496 35.8304 13.7045 35.1413L12.9071 34.6071C12.4038 34.2742 12.218 33.6317 12.4658 33.082L15.578 26.0755C15.8877 25.3788 15.9032 24.6123 15.6167 23.9078C15.3303 23.1956 14.7806 22.6536 14.0684 22.3594L12.2413 21.6317C13.3484 21.3298 14.5174 21.1517 15.7251 21.1517L15.7096 21.1285ZM10.0735 22.4136L13.48 23.7762C13.7974 23.9078 14.0451 24.1478 14.1767 24.4652C14.3006 24.7749 14.2929 25.1155 14.1613 25.4252L11.049 32.4317C10.4993 33.6704 10.9251 35.1181 12.0477 35.8768L12.8529 36.411C13.3174 36.7129 13.5109 37.2936 13.3329 37.82L12.76 39.531C12.4271 40.5374 12.6826 41.6291 13.4335 42.38C14.1845 43.131 15.2761 43.3865 16.2825 43.0536C16.7548 42.891 17.289 43.0536 17.6142 43.4329C17.8464 43.7116 17.9471 44.06 17.8851 44.4239L17.3974 47.3349C16.84 47.4045 16.2825 47.4587 15.7096 47.4587C13.0619 47.4587 10.5922 46.6613 8.52514 45.3142L9.24514 42.442C9.44643 41.5981 9.29159 40.7 8.81159 39.9723L7.62708 38.2149C7.38708 37.851 7.30966 37.3942 7.41031 36.9762L7.73547 35.691C7.9445 34.8781 7.80515 34.0033 7.34837 33.291C6.89934 32.571 6.16386 32.0678 5.33547 31.9052L2.87354 31.4097C3.77161 27.4304 6.46579 24.1401 10.0658 22.4291L10.0735 22.4136ZM2.61806 32.9271L5.04128 33.4149C5.45934 33.5 5.81547 33.74 6.04773 34.1039C6.27225 34.4678 6.34192 34.8858 6.24128 35.2962L5.91612 36.5968C5.71483 37.4407 5.86967 38.3387 6.34966 39.0665L7.53418 40.8239C7.77418 41.1878 7.8516 41.6445 7.75095 42.0626L7.18579 44.2923C4.35225 41.8768 2.54838 38.2923 2.54838 34.282C2.54838 33.8175 2.57161 33.3684 2.61806 32.9194V32.9271Z" fill="#1BB688" stroke="#1BB688"/>
<path d="M34.2902 1C26.1767 1 19.5806 7.59611 19.5806 15.7096C19.5806 16.5303 19.6502 17.3587 19.7819 18.1638L21.307 17.9083C21.1831 17.1883 21.1212 16.4529 21.1212 15.7174C21.1212 8.46321 27.0283 2.55613 34.2825 2.55613C41.5366 2.55613 47.4437 8.46321 47.4437 15.7174C47.4437 22.9716 41.5366 28.8786 34.2825 28.8786C33.547 28.8786 32.8038 28.8167 32.0915 28.6928L31.836 30.218C32.6412 30.3496 33.4618 30.4193 34.2902 30.4193C42.4037 30.4193 48.9999 23.8232 48.9999 15.7096C48.9999 7.59611 42.4037 1 34.2902 1Z" fill="#1BB688" stroke="#1BB688"/>
<path d="M34.2904 21.9038C33.013 21.9038 31.9678 20.8586 31.9678 19.5812H30.4194C30.4194 21.447 31.751 23.0108 33.5162 23.3747V25.0005H35.0646V23.3747C36.8297 23.0186 38.1614 21.4547 38.1614 19.5812V18.807C38.1614 16.6702 36.4272 14.936 34.2904 14.936C33.013 14.936 31.9678 13.8909 31.9678 12.6135V11.8393C31.9678 10.5618 33.013 9.51669 34.2904 9.51669C35.5678 9.51669 36.613 10.5618 36.613 11.8393H38.1614C38.1614 9.97346 36.8297 8.40959 35.0646 8.04572V6.41992H33.5162V8.04572C31.751 8.40185 30.4194 9.96572 30.4194 11.8393V12.6135C30.4194 14.7502 32.1536 16.4844 34.2904 16.4844C35.5678 16.4844 36.613 17.5296 36.613 18.807V19.5812C36.613 20.8586 35.5678 21.9038 34.2904 21.9038Z" fill="#1BB688" stroke="#1BB688"/>
</svg>
