<svg width="40" height="40" viewBox="0 0 40 40" fill="none" xmlns="http://www.w3.org/2000/svg">
<path d="M26.667 13.333C29.3192 13.333 31.8627 14.3866 33.7381 16.2619C35.6134 18.1373 36.667 20.6808 36.667 23.333V34.9997H30.0003V23.333C30.0003 22.449 29.6491 21.6011 29.024 20.976C28.3989 20.3509 27.551 19.9997 26.667 19.9997C25.7829 19.9997 24.9351 20.3509 24.31 20.976C23.6848 21.6011 23.3337 22.449 23.3337 23.333V34.9997H16.667V23.333C16.667 20.6808 17.7206 18.1373 19.5959 16.2619C21.4713 14.3866 24.0148 13.333 26.667 13.333V13.333Z" stroke="#30B5E0" stroke-width="2" stroke-linecap="round" stroke-linejoin="round"/>
<path d="M9.99967 15H3.33301V35H9.99967V15Z" stroke="#30B5E0" stroke-width="2" stroke-linecap="round" stroke-linejoin="round"/>
<path d="M6.66634 9.99967C8.50729 9.99967 9.99967 8.50729 9.99967 6.66634C9.99967 4.82539 8.50729 3.33301 6.66634 3.33301C4.82539 3.33301 3.33301 4.82539 3.33301 6.66634C3.33301 8.50729 4.82539 9.99967 6.66634 9.99967Z" stroke="#30B5E0" stroke-width="2" stroke-linecap="round" stroke-linejoin="round"/>
</svg>
