<svg width="25" height="25" viewBox="0 0 25 25" fill="none" xmlns="http://www.w3.org/2000/svg">
<g clip-path="url(#clip0_2041_7464)">
<path d="M16.5 5.5H8.5C4.63401 5.5 1.5 8.63401 1.5 12.5C1.5 16.366 4.63401 19.5 8.5 19.5H16.5C20.366 19.5 23.5 16.366 23.5 12.5C23.5 8.63401 20.366 5.5 16.5 5.5Z" stroke="#E0AC26" stroke-width="2" stroke-linecap="round" stroke-linejoin="round"/>
<path d="M16.5 15.5C18.1569 15.5 19.5 14.1569 19.5 12.5C19.5 10.8431 18.1569 9.5 16.5 9.5C14.8431 9.5 13.5 10.8431 13.5 12.5C13.5 14.1569 14.8431 15.5 16.5 15.5Z" stroke="#E0AC26" stroke-width="2" stroke-linecap="round" stroke-linejoin="round"/>
</g>
<defs>
<clipPath id="clip0_2041_7464">
<rect width="24" height="24" fill="white" transform="translate(0.5 0.5)"/>
</clipPath>
</defs>
</svg>
