<svg width="40" height="40" viewBox="0 0 40 40" fill="none" xmlns="http://www.w3.org/2000/svg">
<path d="M36.6664 28.1998V33.1998C36.6683 33.664 36.5732 34.1235 36.3872 34.5487C36.2013 34.974 35.9286 35.3558 35.5865 35.6696C35.2445 35.9834 34.8407 36.2223 34.401 36.371C33.9613 36.5197 33.4953 36.5749 33.0331 36.5332C27.9044 35.9759 22.9781 34.2234 18.6497 31.4165C14.6228 28.8576 11.2086 25.4435 8.64973 21.4165C5.83302 17.0685 4.08013 12.1182 3.53306 6.9665C3.49141 6.50561 3.54618 6.0411 3.69389 5.60254C3.8416 5.16398 4.07901 4.76098 4.391 4.4192C4.70299 4.07742 5.08273 3.80435 5.50604 3.61737C5.92935 3.43039 6.38696 3.33361 6.84973 3.33317H11.8497C12.6586 3.32521 13.4427 3.61163 14.056 4.13906C14.6693 4.66648 15.0699 5.39891 15.1831 6.19984C15.3941 7.79995 15.7855 9.37105 16.3497 10.8832C16.574 11.4797 16.6225 12.128 16.4896 12.7513C16.3566 13.3746 16.0478 13.9467 15.5997 14.3998L13.4831 16.5165C15.8557 20.6891 19.3105 24.1439 23.4831 26.5165L25.5997 24.3998C26.0529 23.9517 26.625 23.6429 27.2483 23.51C27.8715 23.3771 28.5199 23.4256 29.1164 23.6498C30.6285 24.2141 32.1996 24.6055 33.7997 24.8165C34.6093 24.9307 35.3487 25.3385 35.8773 25.9623C36.4058 26.5861 36.6867 27.3825 36.6664 28.1998Z" stroke="#30B5E0" stroke-width="2" stroke-linecap="round" stroke-linejoin="round"/>
</svg>
